<svg xmlns="http://www.w3.org/2000/svg" viewBox="0 0 331.3 85.0">
  <path d="M49 354Q49 461 87.5 545.5Q126 630 198.0 678.0Q270 726 368 726Q489 726 560.0 662.0Q631 598 652 492L562 486Q531 642 368 642Q253 642 196.0 560.5Q139 479 139 354Q139 225 196.5 146.5Q254 68 368 68Q429 68 475.5 96.0Q522 124 547.5 172.0Q573 220 574 277H370V359H654V0H590L586 119Q560 59 499.0 21.5Q438 -16 366 -16Q268 -16 196.5 31.5Q125 79 87.0 163.0Q49 247 49 354Z" transform="translate(2.000, 64.880) scale(0.064000, -0.064000)" fill="#111"/>
  <path d="M80 100 81 710H165V107Q165 74 198 74H244V0H185Q136 0 108.0 24.5Q80 49 80 100Z" transform="translate(47.312, 64.880) scale(0.064000, -0.064000)" fill="#111"/>
  <path d="M47 265Q47 349 77.0 411.5Q107 474 162.0 508.0Q217 542 290 542Q362 542 417.0 508.0Q472 474 502.0 411.5Q532 349 532 265Q532 181 502.0 118.5Q472 56 417.0 22.0Q362 -12 290 -12Q217 -12 162.0 22.0Q107 56 77.0 118.5Q47 181 47 265ZM444 265Q444 357 403.5 409.5Q363 462 290 462Q217 462 176.0 410.0Q135 358 135 265Q135 172 176.0 120.0Q217 68 290 68Q363 68 403.5 120.5Q444 173 444 265Z" transform="translate(65.488, 64.880) scale(0.064000, -0.064000)" fill="#111"/>
  <path d="M47 167 135 173Q151 68 276 68Q332 68 363.5 86.0Q395 104 395 142Q395 164 384.5 177.5Q374 191 345.5 201.5Q317 212 260 222Q149 242 104.5 278.5Q60 315 60 380Q60 452 113.0 497.0Q166 542 260 542Q352 542 406.0 494.0Q460 446 473 372L385 366Q376 410 343.5 436.0Q311 462 259 462Q204 462 176.0 440.5Q148 419 148 384Q148 346 176.0 327.0Q204 308 276 296Q357 282 401.5 262.5Q446 243 464.5 214.5Q483 186 483 142Q483 70 424.5 29.0Q366 -12 276 -12Q172 -12 112.5 37.0Q53 86 47 167Z" transform="translate(102.544, 64.880) scale(0.064000, -0.064000)" fill="#111"/>
  <path d="M47 167 135 173Q151 68 276 68Q332 68 363.5 86.0Q395 104 395 142Q395 164 384.5 177.5Q374 191 345.5 201.5Q317 212 260 222Q149 242 104.5 278.5Q60 315 60 380Q60 452 113.0 497.0Q166 542 260 542Q352 542 406.0 494.0Q460 446 473 372L385 366Q376 410 343.5 436.0Q311 462 259 462Q204 462 176.0 440.5Q148 419 148 384Q148 346 176.0 327.0Q204 308 276 296Q357 282 401.5 262.5Q446 243 464.5 214.5Q483 186 483 142Q483 70 424.5 29.0Q366 -12 276 -12Q172 -12 112.5 37.0Q53 86 47 167Z" transform="translate(136.464, 64.880) scale(0.064000, -0.064000)" fill="#111"/>
  <path d="M74 710H350Q622 710 622 517Q622 453 584.5 414.0Q547 375 479 367Q563 359 607.5 314.5Q652 270 652 196Q652 98 583.5 49.0Q515 0 384 0H74ZM499 214Q499 258 466.0 282.0Q433 306 377 306H226V124H377Q434 124 466.5 147.0Q499 170 499 214ZM469 501Q469 586 346 586H226V416H346Q403 416 436.0 438.0Q469 460 469 501Z" transform="translate(168.884, 64.880) scale(0.064000, -0.064000)" fill="#111"/>
  <path d="M39 268Q39 352 73.0 415.5Q107 479 168.5 513.5Q230 548 311 548Q392 548 453.5 513.5Q515 479 549.0 415.5Q583 352 583 268Q583 184 549.5 120.5Q516 57 454.0 22.5Q392 -12 311 -12Q230 -12 168.0 22.5Q106 57 72.5 120.5Q39 184 39 268ZM428 268Q428 346 397.5 389.5Q367 433 311 433Q255 433 224.0 389.5Q193 346 193 268Q193 190 224.0 146.5Q255 103 311 103Q367 103 397.5 146.5Q428 190 428 268Z" transform="translate(213.876, 64.880) scale(0.064000, -0.064000)" fill="#111"/>
  <path d="M39 169 191 174Q205 94 297 94Q338 94 360.0 107.5Q382 121 382 147Q382 165 373.5 176.0Q365 187 341.5 195.5Q318 204 273 211Q188 225 140.0 245.5Q92 266 72.0 297.0Q52 328 52 376Q52 455 113.0 501.5Q174 548 290 548Q399 548 460.5 498.0Q522 448 532 364L382 358Q377 398 352.5 420.0Q328 442 288 442Q249 442 227.5 426.0Q206 410 206 382Q206 353 228.0 338.5Q250 324 306 316Q392 304 442.0 283.0Q492 262 514.0 230.0Q536 198 536 150Q536 73 472.0 30.5Q408 -12 296 -12Q176 -12 110.5 37.5Q45 87 39 169Z" transform="translate(253.684, 64.880) scale(0.064000, -0.064000)" fill="#111"/>
  <path d="M39 169 191 174Q205 94 297 94Q338 94 360.0 107.5Q382 121 382 147Q382 165 373.5 176.0Q365 187 341.5 195.5Q318 204 273 211Q188 225 140.0 245.5Q92 266 72.0 297.0Q52 328 52 376Q52 455 113.0 501.5Q174 548 290 548Q399 548 460.5 498.0Q522 448 532 364L382 358Q377 398 352.5 420.0Q328 442 288 442Q249 442 227.5 426.0Q206 410 206 382Q206 353 228.0 338.5Q250 324 306 316Q392 304 442.0 283.0Q492 262 514.0 230.0Q536 198 536 150Q536 73 472.0 30.5Q408 -12 296 -12Q176 -12 110.5 37.5Q45 87 39 169Z" transform="translate(290.484, 64.880) scale(0.064000, -0.064000)" fill="#111"/>
</svg>