<svg xmlns="http://www.w3.org/2000/svg" xmlns:xlink="http://www.w3.org/1999/xlink" aria-hidden="true" role="img" class="iconify iconify--logos" width="35.93" height="32" preserveAspectRatio="xMidYMid meet" viewBox="0 0 256 228"><path fill="#00D8FF" d="M210.483 73.824a171.49 171.49 0 0 0-8.24-2.597c.465-1.9.893-3.777 1.273-5.621c6.238-30.281 2.16-54.676-11.769-62.708c-13.355-7.7-35.196.329-57.254 19.526a171.23 171.23 0 0 0-6.375 5.848a155.866 155.866 0 0 0-4.241-3.917C100.759 3.829 77.587-4.822 63.673 3.233C50.33 10.957 46.379 33.89 51.986 62.588a170.974 170.974 0 0 0 1.892 8.48c-3.28.932-6.445 1.924-9.474 2.98C17.309 83.498 0 98.307 0 113.668c0 15.865 18.582 31.778 46.812 41.427a145.52 145.52 0 0 0 6.921 2.165a167.467 167.467 0 0 0-2.01 9.138c-5.354 28.2-1.173 50.591 12.134 58.266c13.744 7.926 36.812-.22 59.273-19.855a145.567 145.567 0 0 0 5.342-4.923a168.064 168.064 0 0 0 6.92 6.314c21.758 18.722 43.246 26.282 56.54 18.586c13.731-7.949 18.194-32.003 12.4-61.268a145.016 145.016 0 0 0-1.535-6.842c1.62-.48 3.21-.974 4.76-1.488c29.348-9.723 48.443-25.443 48.443-41.52c0-15.417-17.868-30.326-45.517-39.844Zm-6.365 70.984c-1.4.463-2.836.91-4.3 1.345c-3.24-10.257-7.612-21.163-12.963-32.432c5.106-11 9.31-21.767 12.459-31.957a145.926 145.926 0 0 1 7.535 2.346c22.472 8.004 35.645 19.452 35.645 29.558c0 10.756-14.453 22.791-38.376 31.14Zm-27.898-16.566c-3.84 6.644-7.963 12.997-12.31 18.995c-7.16.59-14.468.898-21.837.898c-7.456 0-14.838-.305-22.036-.886c-4.302-5.89-8.398-12.108-12.255-18.67c-3.848-6.544-7.377-13.188-10.587-19.831c3.158-6.654 6.648-13.37 10.478-20.025c3.83-6.654 7.899-12.992 12.128-18.966c7.235-.618 14.629-.933 22.125-.933c7.575 0 15.032.315 22.271.912c4.222 5.904 8.308 12.147 12.21 18.745c3.91 6.613 7.52 13.29 10.633 19.918c-3.167 6.678-6.672 13.414-10.82 19.843Zm18.56-14.607c2.626 6.285 4.885 12.387 6.784 18.275c-6.057 1.492-12.484 2.76-19.199 3.793a163.82 163.82 0 0 0 12.414-22.068ZM128.144 213.1c-4.345-4.63-8.675-9.63-12.912-14.98c4.216.177 8.49.27 12.818.27c4.385 0 8.716-.101 12.966-.29c-4.247 5.348-8.586 10.336-12.872 15ZM72.032 153.82c-6.615-1.08-12.899-2.364-18.818-3.845c1.854-5.757 4.058-11.727 6.627-17.879a163.413 163.413 0 0 0 12.19 21.724Zm-1.53-69.63a161.93 161.93 0 0 0-12.051 21.236c-2.496-6.046-4.641-11.929-6.46-17.61c5.896-1.547 12.181-2.894 18.511-3.626Zm57.507-45.094c4.378 4.659 8.737 9.697 12.989 15.096c-4.287-.17-8.604-.258-12.936-.258c-4.273 0-8.534.08-12.767.241c4.24-5.37 8.568-10.393 12.714-15.079Zm57.83 24.263c6.731 1.025 13.125 2.27 19.11 3.73c-1.806 5.67-3.947 11.553-6.45 17.606a161.83 161.83 0 0 0-12.66-21.336ZM65.516 65.28C60.3 38.13 63.746 17.137 73.786 11.34c10.496-6.064 30.338 1.725 51.37 19.773a148.628 148.628 0 0 1 3.85 3.564c-7.504 7.166-14.912 15.31-21.893 24.305c-10.198.985-20.023 2.65-29.084 4.953a165.322 165.322 0 0 1-1.713-7.655l-10.8 9Zm15.124 96.982c-27.116-8.467-42.384-20.937-42.384-30.594c0-10.326 16.632-23.593 42.684-32.068c2.724-.889 5.574-1.722 8.5-2.506c3.478 10.47 7.939 21.425 13.34 32.615c-5.569 11.354-10.14 22.404-13.644 32.932a137.32 137.32 0 0 1-8.496-2.379Zm11.398 48.227c-10.478 6.049-30.637-1.39-52.096-19.762a141.92 141.92 0 0 1-6.207-5.69c7.49-7.234 15.036-15.573 22.32-24.839c9.978-1.051 20.09-2.765 29.83-5.06a139.612 139.612 0 0 0 1.787 7.693c5.103 27.382 1.682 44.105-5.634 47.658Zm76.435-20.678a144.408 144.408 0 0 1-6.283 5.802c-7.576-7.094-15.176-15.274-22.427-24.297c9.583-.97 19.316-2.602 28.908-4.878a136.148 136.148 0 0 0 1.355 5.813c4.87 25.16 1.68 41.647-8.07 47.079c-9.42 5.245-27.103-1.128-46.473-17.519Zm12.058-26.455c-2.003-4.766-4.153-9.6-6.444-14.47c2.363-4.922 4.565-9.8 6.602-14.597a141.76 141.76 0 0 1 14.638 2.98c-1.89 5.875-4.098 11.86-6.577 17.88a148.65 148.65 0 0 1-8.22 16.207Zm-4.01-39.666c-3.94-6.636-8.02-12.972-12.264-18.98c8.11.95 15.843 2.271 23.06 3.88c-1.897 5.643-4.091 11.469-6.608 17.495a150.41 150.41 0 0 0-4.188-2.395Z"/><path fill="#00D8FF" d="M128.075 154.833c15.46 0 27.988-12.528 27.988-27.988c0-15.46-12.528-27.988-27.988-27.988c-15.46 0-27.988 12.528-27.988 27.988c0 15.46 12.528 27.988 27.988 27.988Z"/></svg>
